<?xml version="1.0" standalone="no"?>
<!DOCTYPE svg PUBLIC "-//W3C//DTD SVG 20010904//EN"
 "http://www.w3.org/TR/2001/REC-SVG-20010904/DTD/svg10.dtd">
<svg version="1.0" xmlns="http://www.w3.org/2000/svg"
 width="500.000000pt" height="26.000000pt" viewBox="0 0 500.000000 26.000000"
 preserveAspectRatio="xMidYMid meet">
<metadata>
Created by potrace 1.16, written by Peter Selinger 2001-2019
</metadata>
<g transform="translate(0.000000,26.000000) scale(0.012500,-0.012500)"
fill="#ffffff" stroke="none">
<path d="M17977 1984 c-22 -18 -34 -23 -50 -17 -36 13 -157 10 -165 -5 -5 -6
-9 -451 -11 -987 l-2 -975 150 0 151 0 0 405 0 404 27 18 c14 10 41 33 58 51
l32 33 1314 -1 c765 0 1330 -4 1353 -9 22 -6 44 -18 49 -27 13 -23 45 -55 76
-74 l23 -16 2 -392 1 -392 138 0 138 0 -2 980 c-1 1085 3 1021 -63 1004 -17
-4 -51 -8 -76 -8 -25 0 -59 4 -76 8 -60 15 -61 12 -62 -334 l-2 -312 -42 -39
c-24 -22 -76 -56 -116 -76 -62 -30 -78 -34 -97 -25 -17 8 -386 11 -1218 11
-656 0 -1200 3 -1208 6 -8 3 -32 -4 -53 -15 l-39 -19 -33 27 c-18 15 -51 39
-73 54 -29 20 -43 37 -50 65 -5 21 -8 164 -6 328 2 225 0 297 -11 323 -16 38
-20 39 -57 6z m559 -915 c10 -17 -13 -36 -27 -22 -12 12 -4 33 11 33 5 0 12
-5 16 -11z m2358 -57 c23 -33 27 -45 18 -54 -8 -8 -12 -8 -12 -1 0 6 -20 20
-45 32 -29 14 -45 28 -45 39 0 48 45 40 84 -16z"/>
<path d="M4846 1978 c-14 -20 -16 -131 -16 -1000 l0 -978 135 0 135 0 0 788 0
788 43 40 c23 21 51 51 62 66 l20 27 190 2 c173 2 2381 4 2501 2 55 -1 91 -15
111 -43 7 -10 26 -23 42 -30 21 -8 34 -23 42 -48 6 -19 26 -50 44 -68 l33 -32
-3 -167 c-2 -158 -3 -167 -23 -181 -12 -8 -31 -32 -41 -52 -24 -48 -47 -67
-96 -82 -22 -7 -57 -28 -77 -48 l-37 -35 -60 13 c-33 7 -68 9 -78 6 -10 -4
-518 -7 -1129 -6 -1034 1 -1113 0 -1129 -16 -13 -13 -15 -25 -9 -48 9 -36 8
-96 -1 -148 -7 -35 -5 -39 20 -48 19 -7 347 -10 1001 -10 l974 1 55 -33 c34
-20 58 -42 61 -57 4 -13 25 -45 48 -72 23 -27 59 -72 81 -100 22 -28 56 -68
76 -88 20 -20 40 -47 44 -60 4 -13 21 -38 39 -56 17 -18 39 -46 48 -63 12 -22
26 -33 52 -38 35 -6 36 -7 36 -55 l0 -49 205 0 c166 0 205 3 205 14 0 15 -60
96 -108 143 -18 18 -38 47 -44 65 -6 18 -28 53 -49 78 -22 25 -56 65 -76 89
-21 24 -63 71 -93 103 -62 66 -79 93 -80 125 0 23 34 53 61 53 9 0 43 18 75
40 33 22 64 40 71 40 24 0 142 112 153 145 6 18 22 41 36 50 51 33 57 68 56
335 -1 135 -1 279 -1 321 0 76 -1 78 -41 124 -22 25 -40 49 -40 53 0 11 -92
103 -140 142 -31 24 -60 37 -99 43 -31 5 -670 11 -1426 13 -753 1 -1419 5
-1478 8 -59 2 -150 0 -202 -5 -79 -8 -100 -7 -124 6 -38 19 -37 19 -55 -7z
m2962 -155 c2 -8 -5 -13 -17 -13 -12 0 -21 6 -21 16 0 18 31 15 38 -3z m21
-1007 c22 -26 -10 -63 -44 -50 -18 7 -20 35 -3 52 16 16 33 15 47 -2z m280
-502 c3 -16 1 -17 -13 -5 -19 16 -21 34 -3 29 6 -3 14 -13 16 -24z m-39 -183
c0 -23 -16 -36 -25 -21 -9 14 1 40 15 40 5 0 10 -9 10 -19z"/>
<path d="M12622 1989 c-13 -5 -683 -11 -1490 -13 -807 -2 -1502 -4 -1544 -4
-98 -1 -146 -22 -213 -91 -27 -29 -71 -74 -96 -100 -36 -37 -49 -60 -59 -102
-7 -30 -25 -84 -41 -121 l-29 -66 0 -746 0 -746 170 0 171 0 -1 754 c-2 818
-1 822 51 853 16 9 33 30 40 45 6 16 21 34 33 41 16 9 337 13 1374 15 1229 2
1356 1 1387 -14 19 -9 37 -25 41 -36 3 -12 7 -136 7 -278 l1 -256 -45 -64
c-26 -38 -62 -75 -89 -92 l-45 -28 -1177 -1 c-1085 -1 -1178 -2 -1191 -17 -21
-24 -18 -229 3 -242 9 -6 504 -10 1238 -10 1307 0 1261 2 1306 -48 14 -16 17
-29 12 -54 -4 -18 -9 -153 -12 -300 l-5 -268 136 0 136 0 -1 638 c-1 350 -1
789 -1 975 1 201 -3 346 -9 356 -13 24 -30 30 -58 20z m-3197 -200 c0 -7 -8
-15 -17 -17 -18 -3 -25 18 -11 32 10 10 28 1 28 -15z m-80 -145 c0 -10 -8 -20
-17 -22 -18 -3 -26 27 -11 42 12 11 28 0 28 -20z m143 -2 c3 -17 -2 -22 -17
-22 -14 0 -21 6 -21 18 0 38 33 41 38 4z m3079 -174 c-3 -7 -5 -2 -5 12 0 14
2 19 5 13 2 -7 2 -19 0 -25z m13 -140 c0 -23 -26 -23 -34 -2 -4 9 -4 25 0 36
6 19 6 19 20 1 7 -10 14 -26 14 -35z m-2517 -522 c7 -17 -1 -26 -24 -26 -24 0
-35 20 -18 31 20 13 36 11 42 -5z m2514 -533 c-3 -10 -5 -4 -5 12 0 17 2 24 5
18 2 -7 2 -21 0 -30z"/>
<path d="M21961 1970 c-7 -21 -10 -344 -11 -1000 l0 -970 150 0 150 0 0 958
c-1 722 -4 964 -13 982 -18 37 -94 57 -146 40 -35 -11 -43 -11 -65 4 -37 23
-53 20 -65 -14z"/>
<path d="M27320 1981 c-7 -13 -10 -343 -10 -1000 l0 -981 1771 0 1771 0 -3
153 c-4 174 -11 193 -63 183 -17 -3 -626 -5 -1354 -5 -973 -1 -1334 -4 -1362
-12 -32 -10 -46 -9 -80 5 -38 15 -46 15 -95 1 -53 -16 -54 -16 -127 15 -76 33
-108 55 -108 76 0 6 -16 26 -36 44 -45 39 -54 74 -49 207 l3 102 44 44 c23 24
52 56 63 71 l20 27 1294 -1 c712 0 1324 -3 1360 -6 94 -9 96 -6 92 159 -1 78
-7 137 -14 145 -7 9 -23 12 -46 8 -44 -7 -2397 -7 -2416 0 -25 10 -92 -15 -98
-36 -7 -26 -29 -26 -52 0 -10 11 -48 29 -85 40 -61 18 -72 25 -109 75 -55 72
-59 86 -55 182 3 91 9 106 62 165 67 74 -72 68 1591 68 824 0 1520 -3 1545 -6
71 -10 76 -1 76 132 0 149 -16 183 -71 154 -13 -8 -432 -10 -1322 -9 -716 2
-1320 2 -1342 1 -22 0 -191 -3 -375 -5 -264 -3 -341 -1 -362 10 -36 17 -45 17
-58 -6z m3438 -159 c3 -20 0 -23 -20 -20 -15 2 -24 11 -26 26 -3 20 0 23 20
20 15 -2 24 -11 26 -26z m-3198 -82 c0 -5 -4 -10 -10 -10 -5 0 -10 5 -10 10 0
6 5 10 10 10 6 0 10 -4 10 -10z m178 -708 c-7 -8 -14 -10 -21 -3 -7 7 -6 15 3
26 10 12 15 13 21 3 4 -7 3 -18 -3 -26z m2620 6 c3 -28 -16 -42 -38 -28 -11 7
-12 14 -2 35 15 32 36 28 40 -7z m-2378 -8 c0 -5 -7 -10 -16 -10 -8 0 -12 5
-9 10 3 6 10 10 16 10 5 0 9 -4 9 -10z"/>
<path d="M35098 1990 c-10 -6 -608 -11 -1615 -13 -1172 -2 -1609 -6 -1638 -14
-22 -7 -47 -20 -55 -30 -8 -10 -32 -29 -52 -42 -21 -12 -38 -26 -38 -30 0 -4
-15 -23 -32 -43 -77 -83 -107 -130 -115 -176 -10 -60 -10 -1184 1 -1235 4 -23
23 -56 45 -80 21 -23 47 -58 59 -78 29 -48 123 -128 164 -140 18 -5 52 -9 76
-9 50 0 92 -34 92 -75 l0 -25 1590 0 1590 0 0 159 c0 174 -5 189 -57 178 -16
-3 -689 -7 -1498 -7 -1302 -1 -1478 0 -1543 14 -85 18 -127 38 -142 66 -6 11
-30 42 -54 69 -39 44 -44 55 -51 117 -4 38 -7 259 -7 491 l0 423 76 87 c43 49
81 94 87 101 8 10 327 12 1596 12 1165 -1 1588 2 1593 11 4 6 5 63 2 127 -5
140 -22 172 -74 142z m-3428 -366 c0 -26 -17 -33 -26 -9 -8 20 3 48 16 40 5
-3 10 -17 10 -31z m40 -1029 c0 -8 -4 -15 -10 -15 -5 0 -10 7 -10 15 0 8 5 15
10 15 6 0 10 -7 10 -15z m90 -136 c0 -5 -4 -9 -10 -9 -5 0 -10 7 -10 16 0 8 5
12 10 9 6 -3 10 -10 10 -16z"/>
<path d="M1218 1985 c-4 -4 -85 -9 -180 -10 -223 -3 -259 -10 -328 -62 -54
-41 -89 -82 -163 -193 -33 -49 -37 -62 -38 -120 0 -36 -1 -321 -1 -635 -2
-629 -3 -614 61 -657 20 -13 38 -36 42 -52 9 -34 89 -113 133 -131 17 -7 54
-16 81 -20 69 -10 83 -19 95 -65 l11 -40 1600 0 1599 0 -2 596 c-3 582 -3 596
-23 611 -14 10 -32 13 -60 8 -52 -8 -2658 -7 -2679 1 -9 3 -28 -2 -42 -11 -26
-17 -27 -19 -20 -100 4 -52 2 -94 -5 -114 -9 -24 -9 -39 0 -57 l11 -24 1196 0
1196 1 34 -26 c45 -35 62 -61 84 -135 13 -42 17 -78 13 -110 -3 -26 0 -63 6
-83 11 -34 10 -41 -29 -110 -57 -105 -67 -112 -159 -113 -42 -1 -581 -2 -1198
-2 -835 -1 -1132 -4 -1162 -13 -33 -10 -46 -9 -82 5 -35 14 -50 15 -89 6 -41
-10 -52 -9 -86 9 -21 11 -60 25 -87 32 -38 9 -56 22 -95 68 -79 91 -84 101
-82 183 0 40 1 253 1 473 -1 386 0 401 20 425 11 14 29 45 40 68 14 30 31 48
53 57 17 7 40 22 50 33 19 22 143 49 172 38 27 -11 3007 -7 3017 3 13 13 9
228 -4 254 -9 16 -17 18 -42 12 -18 -5 -44 -7 -59 -6 -65 3 -165 4 -1405 2
-716 0 -1321 2 -1345 5 -24 3 -46 3 -50 -1z m42 -121 c0 -2 -7 -4 -15 -4 -8 0
-15 4 -15 10 0 5 7 7 15 4 8 -4 15 -8 15 -10z m-540 -84 c0 -5 -4 -10 -10 -10
-5 0 -10 5 -10 10 0 6 5 10 10 10 6 0 10 -4 10 -10z m-70 -1341 c0 -5 -4 -9
-10 -9 -5 0 -10 7 -10 16 0 8 5 12 10 9 6 -3 10 -10 10 -16z m528 -246 c2 -8
-6 -13 -22 -13 -25 0 -33 10 -19 24 10 10 36 3 41 -11z"/>
<path d="M13400 1965 c-6 -17 -10 -363 -10 -996 l0 -969 148 0 148 0 1 781 1
782 49 71 48 71 1390 0 1390 0 45 -30 c31 -21 54 -48 73 -85 16 -30 37 -64 47
-75 25 -28 38 -271 18 -331 -23 -66 -94 -153 -141 -173 -23 -10 -57 -31 -75
-46 l-32 -27 -1200 1 -1199 2 -21 -21 c-17 -17 -19 -27 -13 -58 8 -42 8 -60
-3 -121 -6 -37 -4 -46 11 -58 16 -11 238 -13 1281 -13 847 0 1272 3 1290 10
15 6 42 24 61 40 21 19 45 30 63 30 23 0 44 14 89 58 32 31 62 71 68 87 6 17
27 47 47 67 35 35 36 38 36 114 0 51 7 102 20 142 25 79 25 137 0 227 -11 41
-20 102 -20 148 0 76 -1 80 -47 150 -28 43 -80 102 -129 145 -75 66 -85 72
-125 72 -24 0 -78 7 -119 16 -51 11 -98 14 -145 9 -38 -3 -659 -8 -1380 -10
-720 -2 -1321 -4 -1335 -5 -49 -1 -256 10 -287 16 -29 5 -34 3 -43 -21z m540
-106 c0 -15 -5 -20 -22 -17 -34 5 -37 38 -4 38 20 0 26 -5 26 -21z m-425 -60
c0 -15 -7 -25 -17 -27 -13 -3 -18 3 -18 21 0 13 3 27 7 31 13 12 28 -1 28 -25z
m3355 -239 c0 -5 -7 -10 -15 -10 -8 0 -15 5 -15 10 0 6 7 10 15 10 8 0 15 -4
15 -10z m-100 -609 c0 -24 -18 -37 -32 -23 -8 8 -7 16 2 27 17 21 30 19 30 -4z"/>
<path d="M23196 1983 c-4 -4 -51 -8 -104 -8 -56 0 -106 -5 -118 -12 l-21 -12
-2 -975 -2 -976 151 0 150 0 1 722 c0 398 -1 762 -1 810 -1 86 -1 88 25 100
20 9 40 9 88 -1 56 -11 68 -19 124 -74 116 -116 168 -163 214 -194 25 -17 62
-52 83 -77 21 -26 52 -54 69 -63 18 -9 49 -35 69 -59 21 -23 62 -58 90 -77 29
-20 75 -59 102 -87 27 -29 67 -63 88 -78 22 -14 46 -38 54 -54 8 -15 31 -37
52 -47 40 -21 106 -82 135 -124 11 -16 31 -29 52 -33 32 -6 101 -69 145 -134
14 -20 94 -50 144 -54 26 -2 32 20 6 27 -24 6 -26 25 -3 34 11 4 22 -1 31 -15
26 -40 89 -28 123 24 8 11 39 41 69 67 30 25 78 66 105 91 79 72 237 207 300
256 32 25 64 60 72 78 10 23 20 32 37 32 16 0 47 22 94 68 38 37 106 99 151
137 46 39 107 94 137 123 30 28 59 52 64 52 18 0 70 52 70 71 0 10 -13 25 -30
34 -16 9 -30 20 -30 25 0 19 48 10 62 -12 22 -32 63 -18 88 31 23 46 60 59
115 41 72 -24 68 17 66 -857 l-2 -783 151 0 150 0 0 984 c-1 760 -3 986 -13
993 -12 10 -56 9 -359 -4 l-167 -8 -33 -31 c-18 -16 -45 -35 -60 -42 -16 -7
-34 -26 -42 -47 -8 -19 -20 -35 -26 -35 -15 0 -76 -49 -165 -135 -41 -38 -105
-96 -142 -128 -37 -31 -108 -91 -156 -132 -49 -41 -92 -75 -97 -75 -5 0 -45
-35 -89 -78 -133 -131 -244 -231 -283 -258 -21 -13 -38 -29 -38 -34 0 -6 -19
-24 -42 -41 -53 -38 -62 -53 -48 -80 14 -25 6 -36 -13 -20 -8 6 -37 18 -64 26
-50 15 -123 79 -152 133 -6 12 -26 28 -44 36 -18 7 -65 45 -105 85 -40 39 -78
71 -85 71 -7 0 -46 32 -86 70 -41 39 -79 70 -85 70 -5 0 -48 38 -96 85 -122
121 -334 310 -368 329 -9 5 -44 35 -77 67 -33 32 -71 66 -85 76 -14 9 -42 31
-62 49 -20 18 -54 37 -75 43 -53 13 -247 24 -257 14z m97 -109 c11 -12 -13
-44 -33 -44 -22 0 -34 15 -26 35 5 15 47 21 59 9z m2849 -86 c-16 -16 -35 3
-26 26 6 16 8 16 22 2 13 -12 14 -19 4 -28z m-2573 8 c18 -21 -11 -41 -38 -26
-12 6 -21 14 -21 19 0 23 41 29 59 7z m2405 8 c20 -8 21 -44 2 -44 -18 0 -39
27 -31 40 7 12 8 12 29 4z m-2834 -89 c0 -9 -9 -15 -22 -15 -22 1 -23 1 -4 15
25 19 26 19 26 0z m2749 -214 c12 -8 12 -12 2 -25 -15 -18 -37 -21 -46 -6 -7
11 11 40 24 40 3 0 12 -4 20 -9z m-79 -71 c13 -8 13 -11 -2 -26 -14 -14 -20
-15 -33 -4 -12 10 -13 16 -4 26 13 16 19 17 39 4z m-110 -94 c0 -11 -19 -15
-25 -6 -3 5 1 10 9 10 9 0 16 -2 16 -4z m-345 -141 c0 -10 -13 -26 -30 -36
-16 -10 -38 -23 -47 -29 -14 -8 -18 -7 -18 6 0 9 9 18 20 21 12 3 28 19 36 35
16 31 39 33 39 3z m133 -113 c2 -12 -1 -22 -7 -22 -15 0 -42 31 -35 41 10 17
39 5 42 -19z m-1183 -102 c-6 -18 -9 -20 -16 -9 -5 8 -9 25 -9 39 0 22 1 23
16 8 11 -10 14 -23 9 -38z m213 7 c4 -22 -27 -35 -38 -16 -10 15 7 42 24 36 6
-2 12 -11 14 -20z m812 13 c0 -5 -4 -10 -10 -10 -5 0 -10 5 -10 10 0 6 5 10
10 10 6 0 10 -4 10 -10z m-735 -109 c3 -5 1 -12 -5 -16 -5 -3 -10 1 -10 9 0
18 6 21 15 7z m180 -201 c0 -29 -32 -41 -41 -16 -9 24 4 48 23 44 12 -2 18
-12 18 -28z"/>
<path d="M39305 1982 c-2 -2 -2333 -11 -3028 -11 -90 0 -99 -2 -122 -25 -14
-14 -25 -32 -25 -41 0 -9 -9 -15 -24 -15 -27 0 -76 -35 -76 -55 0 -7 -15 -24
-34 -38 -23 -18 -36 -38 -40 -62 -4 -20 -21 -55 -38 -79 -17 -24 -34 -63 -39
-87 -12 -63 -11 -1056 1 -1098 5 -19 20 -46 34 -60 14 -16 26 -43 29 -70 6
-48 20 -66 129 -162 57 -52 74 -61 122 -69 87 -14 124 -36 132 -76 l6 -34
1584 0 1583 0 0 155 c-1 104 -5 157 -12 164 -11 8 -52 10 -247 13 -25 0 -655
0 -1401 0 -1328 -2 -1358 -1 -1415 18 -31 11 -66 20 -76 20 -32 0 -115 86
-132 137 -9 26 -24 55 -33 66 -17 18 -18 50 -15 446 3 425 3 426 29 504 20 62
31 81 53 92 16 8 39 28 52 45 16 20 39 35 64 40 22 6 687 10 1570 10 1645 0
1567 -3 1565 51 0 13 -2 65 -3 116 -2 50 -7 95 -11 100 -8 7 -175 12 -182 5z
m-3195 -1493 c0 -11 -4 -17 -10 -14 -5 3 -10 15 -10 26 0 11 5 17 10 14 6 -3
10 -15 10 -26z"/>
</g>
</svg>
