<?xml version="1.0" standalone="no"?>
<!DOCTYPE svg PUBLIC "-//W3C//DTD SVG 20010904//EN"
 "http://www.w3.org/TR/2001/REC-SVG-20010904/DTD/svg10.dtd">
<svg version="1.0" xmlns="http://www.w3.org/2000/svg"
 width="500.000000pt" height="26.000000pt" viewBox="0 0 500.000000 26.000000"
 preserveAspectRatio="xMidYMid meet">
<metadata>
Created by potrace 1.16, written by Peter Selinger 2001-2019
</metadata>
<g transform="translate(0.000000,26.000000) scale(0.012500,-0.012500)"
fill="#1a1a1a" stroke="none">
<path d="M879 2054 c-30 -33 -84 -60 -134 -70 -59 -10 -90 -29 -114 -70 -12
-20 -39 -57 -60 -83 -22 -25 -59 -89 -83 -141 l-43 -95 -3 -430 c-1 -236 -5
-471 -9 -520 -4 -74 -2 -106 16 -175 12 -47 33 -103 46 -125 13 -22 37 -65 53
-95 42 -78 126 -155 179 -163 29 -5 49 -16 67 -38 14 -17 26 -35 26 -40 0 -5
660 -9 1681 -9 l1681 0 -5 608 c-3 334 -8 615 -12 625 -4 10 -15 21 -24 26
-26 13 -2826 15 -2850 1 -50 -26 -70 -129 -52 -262 7 -45 14 -90 17 -99 12
-41 11 -41 1219 -38 l1160 2 51 -27 c86 -45 86 -45 84 -203 0 -76 0 -151 2
-167 2 -24 -3 -33 -31 -50 -42 -24 49 -23 -1562 -26 l-1186 -3 -43 24 c-24 13
-58 43 -76 66 -49 64 -56 142 -57 604 l0 397 74 82 c41 45 85 87 99 93 32 14
2604 22 2910 9 118 -5 221 -7 227 -4 7 2 21 18 32 35 17 29 19 47 15 167 -2
74 -7 153 -11 175 l-8 40 -1626 3 -1625 2 -25 -26z"/>
<path d="M4792 2008 c-7 -49 -11 -398 -12 -1040 l-1 -968 189 0 189 0 6 143
c3 79 2 162 -3 184 -6 27 -5 60 4 103 9 45 10 79 3 114 -6 35 -5 69 3 107 9
43 10 73 1 125 -8 47 -10 147 -5 314 8 312 8 295 -1 362 -10 75 12 137 62 175
32 25 45 28 176 36 87 5 171 5 217 -1 43 -6 99 -6 130 -2 65 10 1755 11 2042
2 226 -8 216 -4 285 -116 l37 -61 0 -160 c-1 -125 -4 -166 -16 -190 -34 -65
-112 -111 -210 -126 -36 -5 -561 -9 -1227 -8 -1160 0 -1164 0 -1185 -20 -18
-18 -21 -39 -28 -163 l-7 -143 30 -28 31 -28 1001 2 1001 2 35 -40 c20 -22 61
-71 91 -108 166 -204 274 -324 323 -357 19 -13 27 -30 32 -68 l7 -50 250 0
251 0 -7 42 c-11 67 -33 104 -75 123 -28 12 -45 30 -62 63 -12 26 -39 62 -60
80 -20 18 -51 54 -69 80 -18 26 -50 61 -71 77 -69 53 -88 114 -46 152 12 12
45 32 72 46 28 14 70 46 95 72 25 25 60 56 79 67 18 12 40 37 48 57 9 20 33
61 54 92 57 81 72 160 73 389 l1 185 -39 118 c-35 106 -43 122 -88 166 -27 27
-64 71 -81 97 -31 47 -36 50 -132 81 -74 24 -107 40 -127 63 l-28 30 -1613 0
-1614 0 -11 -72z"/>
<path d="M9576 2055 c-9 -14 -29 -28 -44 -31 -55 -14 -180 -84 -203 -114 -13
-17 -44 -54 -69 -83 -30 -34 -61 -89 -90 -157 l-45 -105 -3 -782 -2 -783 200
0 200 0 0 728 c0 400 4 743 9 763 8 35 53 106 96 154 l21 22 1338 -1 1338 -1
19 -24 c17 -21 19 -42 19 -252 0 -170 -4 -238 -13 -262 -16 -37 -86 -103 -125
-118 -17 -7 -424 -10 -1201 -8 -1142 2 -1175 1 -1189 -17 -33 -44 -42 -84 -42
-192 0 -100 2 -110 23 -130 38 -35 76 -44 192 -41 61 1 598 2 1195 1 1069 -2
1085 -2 1118 -22 49 -30 58 -58 46 -148 -5 -42 -8 -161 -6 -265 l3 -187 183 0
184 0 5 138 c5 126 11 750 9 867 -1 28 -3 259 -5 515 -2 347 -6 477 -16 513
l-13 47 -1558 0 -1558 0 -16 -25z"/>
<path d="M13351 1958 c-8 -78 -10 -212 -7 -368 2 -135 5 -548 5 -917 l1 -673
200 0 200 0 -3 557 c-2 307 -1 665 2 796 l6 239 34 30 c31 28 37 29 115 27 44
-1 108 3 141 10 78 15 2214 14 2355 -1 52 -6 117 -12 143 -13 55 -2 63 -8 113
-90 35 -57 38 -66 47 -185 10 -136 12 -127 -51 -245 -22 -42 -47 -74 -62 -81
-77 -37 -120 -38 -1325 -41 -649 -2 -1188 -6 -1198 -9 -25 -8 -45 -52 -57
-129 -16 -101 12 -222 55 -239 9 -3 584 -6 1278 -6 l1262 0 46 24 c25 13 62
28 83 31 25 5 51 21 79 50 23 23 59 52 79 64 57 34 144 152 158 214 7 29 21
90 33 137 15 64 20 118 20 215 0 113 -3 142 -28 225 -34 116 -51 152 -119 244
-70 93 -125 142 -178 156 -116 32 -121 35 -137 67 l-16 33 -1631 0 -1630 0
-13 -122z"/>
<path d="M17696 2034 c-3 -26 -6 -494 -6 -1040 l0 -994 195 0 195 0 0 383 c0
432 -5 407 82 452 48 25 61 27 178 28 219 2 2312 1 2376 -1 71 -2 143 -30 179
-68 l25 -27 0 -383 0 -384 200 0 199 0 3 953 c3 850 0 1023 -18 1105 -4 22 -6
22 -184 22 -162 0 -179 -2 -183 -17 -16 -56 -20 -143 -18 -348 2 -246 -9 -367
-37 -398 -44 -50 7 -48 -1390 -47 -1215 0 -1309 2 -1342 18 -67 33 -70 49 -70
393 0 168 -3 327 -6 353 l-7 46 -182 0 -182 0 -7 -46z"/>
<path d="M21926 2034 c-3 -26 -6 -494 -6 -1040 l0 -994 196 0 196 0 -5 1017
c-3 560 -8 1028 -12 1041 -7 22 -10 22 -185 22 l-177 0 -7 -46z"/>
<path d="M22903 2068 c-4 -7 -9 -475 -11 -1040 l-3 -1028 206 0 206 0 -3 776
c-3 758 -3 776 16 790 26 19 50 18 94 -5 23 -12 44 -33 55 -55 9 -20 35 -48
58 -63 22 -16 71 -54 107 -85 37 -32 105 -89 152 -127 47 -38 102 -90 123
-115 21 -26 56 -55 78 -66 22 -12 86 -66 142 -121 56 -56 118 -108 136 -116
19 -8 55 -36 80 -62 98 -100 274 -257 309 -275 20 -10 51 -31 67 -46 40 -37
74 -44 106 -22 113 75 143 99 209 167 41 43 88 85 104 95 29 18 121 100 200
175 22 22 64 55 91 73 28 19 63 51 78 73 16 21 33 39 39 39 5 0 40 28 76 63
37 35 90 80 119 101 29 20 62 49 75 64 13 15 52 52 88 82 35 30 75 67 88 82
12 15 46 44 75 64 29 21 68 55 88 77 29 33 39 39 61 34 15 -4 28 -16 32 -29 3
-13 6 -371 6 -795 l0 -773 206 0 205 0 -4 1008 c-3 554 -8 1022 -12 1040 l-7
32 -254 0 -254 0 -9 -22 c-11 -28 -42 -57 -101 -93 -25 -16 -80 -62 -122 -103
-42 -41 -97 -88 -122 -106 -46 -33 -182 -150 -301 -261 -38 -36 -79 -73 -91
-83 -11 -9 -51 -44 -90 -78 -38 -33 -89 -75 -114 -94 -25 -19 -76 -64 -115
-100 -38 -37 -88 -79 -110 -95 -22 -16 -61 -50 -86 -77 -39 -40 -52 -48 -83
-48 -31 0 -47 9 -94 53 -31 30 -73 64 -92 78 -19 13 -61 52 -94 86 -32 35 -82
77 -111 93 -29 17 -65 46 -80 65 -14 20 -43 46 -63 59 -20 13 -78 61 -128 107
-50 46 -105 91 -122 101 -17 9 -44 35 -61 59 -17 23 -48 54 -69 67 -20 14 -75
61 -121 105 -46 43 -103 90 -125 104 -44 28 -114 85 -178 146 l-40 37 -249 0
c-187 0 -250 -3 -256 -12z"/>
<path d="M27285 2068 c-20 -64 -24 -243 -25 -1106 l-1 -962 1809 0 1809 0 6
138 c5 150 -2 215 -27 240 -14 14 -22 14 -61 4 -31 -8 -52 -9 -72 -1 -18 7
-492 10 -1457 9 -1019 -1 -1445 1 -1480 9 -68 16 -104 37 -127 74 -17 27 -19
42 -13 104 4 45 2 84 -6 107 -17 51 7 94 77 141 l56 37 1342 -1 c1294 0 1343
0 1362 18 18 18 20 31 19 188 -1 128 -4 174 -15 186 -12 16 -121 17 -1378 17
-1471 0 -1415 -2 -1444 51 -7 14 -12 67 -13 128 -1 92 2 112 21 148 17 32 32
45 60 54 28 9 409 13 1488 16 1285 4 1457 3 1509 -10 50 -14 64 -14 91 -3 61
26 65 41 65 243 l0 183 -1795 0 c-1428 0 -1796 -3 -1800 -12z"/>
<path d="M31963 2060 c-5 -18 -24 -28 -147 -71 -21 -8 -65 -36 -97 -64 -31
-27 -69 -58 -83 -68 -15 -10 -39 -44 -55 -75 -16 -31 -44 -80 -63 -108 l-35
-52 -4 -413 c-6 -600 -5 -630 20 -737 21 -90 50 -164 70 -177 6 -3 24 -31 41
-63 26 -49 44 -66 126 -122 53 -36 104 -75 114 -87 l18 -23 1676 0 1676 0 -1
98 c-1 142 -14 261 -31 278 -12 12 -229 14 -1575 14 -1109 0 -1570 3 -1592 11
-38 14 -97 87 -111 140 -19 70 -30 282 -30 598 0 208 4 327 11 352 13 42 95
146 132 166 17 10 358 12 1583 12 858 0 1568 3 1577 7 9 3 19 14 22 24 12 38
13 190 3 283 l-12 97 -1614 0 c-1597 0 -1614 0 -1619 -20z"/>
<path d="M36255 2048 c-14 -22 -40 -39 -85 -58 -46 -19 -84 -45 -130 -90 -36
-34 -73 -70 -84 -79 -10 -9 -27 -34 -37 -57 -10 -22 -28 -53 -40 -68 -44 -56
-50 -103 -56 -431 -6 -333 9 -740 30 -842 7 -34 26 -79 40 -101 15 -21 38 -59
50 -83 18 -36 43 -58 137 -121 63 -42 125 -86 136 -98 22 -20 24 -20 1683 -20
l1661 0 0 166 c0 91 -4 174 -10 184 -5 10 -23 23 -40 29 -21 7 -510 10 -1566
10 -1229 1 -1539 3 -1552 13 -8 7 -38 25 -66 39 -40 20 -56 35 -74 72 l-24 46
1 465 c2 459 2 466 24 507 34 64 86 105 154 121 47 10 302 13 1338 12 704 0
1378 -1 1498 -2 319 -2 325 1 322 203 -1 66 -7 141 -14 168 l-13 47 -1632 0
-1631 -1 -20 -31z"/>
</g>
</svg>
